<?xml version="1.0" standalone="no"?>
<!DOCTYPE svg PUBLIC "-//W3C//DTD SVG 20010904//EN"
 "http://www.w3.org/TR/2001/REC-SVG-20010904/DTD/svg10.dtd">
<svg version="1.0" xmlns="http://www.w3.org/2000/svg"
 width="256.000000pt" height="63.000000pt" viewBox="0 0 256.000000 63.000000"
 preserveAspectRatio="xMidYMid meet">

<g transform="translate(0.000000,63.000000) scale(0.100000,-0.100000)"
fill="#66A334" stroke="none">
<path d="M1315 625 c-10 -4 -1141 -362 -1255 -397 -36 -12 -60 -23 -53 -25 6
-2 130 18 275 46 408 78 658 121 712 123 43 1 53 -3 74 -27 23 -27 24 -34 22
-149 -2 -67 -2 -129 -1 -138 2 -26 38 -58 65 -58 23 0 1273 447 1367 489 24
11 37 20 28 20 -9 1 -202 -38 -430 -85 -632 -130 -623 -129 -667 -98 -21 14
-22 22 -22 137 0 145 -9 167 -68 166 -20 0 -41 -2 -47 -4z"/>
</g>
</svg>
